<?xml version="1.0" encoding="UTF-8"?>
<svg version="1.1" xmlns="http://www.w3.org/2000/svg" width="2000" height="1145">
<path d="M0 0 C1.65593647 2.55504639 3.18270784 5.10789069 4.6875 7.75 C22.60305241 38.07168964 46.82228545 63.19865052 75 84 C73.53479453 88.33191182 71.32564555 91.42323348 68.5 95 C67.58952622 96.15860471 66.67937874 97.3174659 65.76953125 98.4765625 C65.30627441 99.0634082 64.84301758 99.65025391 64.36572266 100.25488281 C63.08318642 101.89370459 61.8239511 103.5470228 60.57421875 105.2109375 C50.97087783 117.94204412 40.35472892 129.75774753 29.47949219 141.40722656 C27.99010669 143.01065081 26.51294595 144.62451054 25.0390625 146.2421875 C16.10008282 156.03969667 7.00767866 165.75079846 -3.12109375 174.3359375 C-5.28969361 176.25656857 -7.29115466 178.30017991 -9.3125 180.375 C-19.70204645 190.76454645 -31.01630483 197.81053294 -43.68847656 205.09472656 C-49.25207742 208.29572487 -54.79870381 211.525612 -60.34136963 214.76269531 C-62.20026548 215.8460159 -64.06254743 216.92331619 -65.92529297 218 C-71.09767114 221.00468041 -76.18065848 224.04756987 -81.04296875 227.5390625 C-86.23912244 231.26235719 -91.71500845 234.38820562 -97.28961182 237.50735474 C-100.38629743 239.24119804 -103.47261603 240.99328163 -106.55859375 242.74609375 C-107.18572266 243.10211166 -107.81285156 243.45812958 -108.45898438 243.82493591 C-114.57318211 247.30670336 -120.60519512 250.9202247 -126.625 254.5625 C-136.17775607 260.33727847 -145.8079115 265.96111411 -155.48754883 271.52026367 C-163.18410558 275.9432868 -170.84111413 280.4278801 -178.47705078 284.95458984 C-183.57753934 287.97760912 -188.68267743 290.9924135 -193.796875 293.9921875 C-194.38700378 294.33838638 -194.97713257 294.68458527 -195.58514404 295.04127502 C-198.62599174 296.82427839 -201.66860495 298.60418508 -204.71386719 300.37963867 C-210.53737803 303.77787772 -216.34567591 307.19615611 -222.11036682 310.69351196 C-224.77928877 312.31123947 -227.45512401 313.91732788 -230.13156128 315.52258301 C-231.41220076 316.29518064 -232.68938411 317.07353812 -233.96292114 317.85778809 C-235.72863179 318.94454973 -237.50509704 320.01117593 -239.28515625 321.07421875 C-240.29457275 321.68869873 -241.30398926 322.30317871 -242.34399414 322.9362793 C-245 324 -245 324 -247.25683594 323.2824707 C-249.20813889 321.84686924 -250.63961159 320.36510999 -252.1875 318.5 C-254.90842568 315.28383089 -257.67153327 312.12239599 -260.5 309 C-261.2528125 308.16210938 -262.005625 307.32421875 -262.78125 306.4609375 C-264.21066955 304.87548976 -265.64762875 303.29679117 -267.09375 301.7265625 C-267.7228125 301.03304688 -268.351875 300.33953125 -269 299.625 C-269.556875 299.01914062 -270.11375 298.41328125 -270.6875 297.7890625 C-272.18105635 295.75320295 -272.69051506 294.50312793 -273 292 C-272.05053711 290.10327148 -272.05053711 290.10327148 -270.52734375 288.12109375 C-269.68357178 287.00178467 -269.68357178 287.00178467 -268.82275391 285.85986328 C-267.88955322 284.66079346 -267.88955322 284.66079346 -266.9375 283.4375 C-265.63112063 281.71513933 -264.32514175 279.99247483 -263.01953125 278.26953125 C-262.34744629 277.39119629 -261.67536133 276.51286133 -260.98291016 275.60791016 C-258.55509249 272.41486063 -256.18440188 269.18271749 -253.81860352 265.94360352 C-247.64443224 257.4909432 -241.32543527 249.15442162 -234.96582031 240.84082031 C-228.19624425 231.97722363 -221.58876628 222.99837223 -215 214 C-207.0951261 203.20420079 -199.10860845 192.48239663 -190.97680664 181.85620117 C-185.84904901 175.14425826 -180.81079351 168.37104315 -175.81884766 161.55761719 C-171.89606264 156.20349959 -167.91498192 150.90118273 -163.8671875 145.640625 C-162.1019496 143.14417976 -160.62985803 140.57176492 -159.13916016 137.90625 C-156.93399916 134.21617348 -154.31997802 130.81599747 -151.75 127.375 C-150.84278198 126.1518811 -150.84278198 126.1518811 -149.91723633 124.90405273 C-144.54537735 117.68285403 -139.10221442 110.5154558 -133.62548828 103.37353516 C-129.42334225 97.8930553 -129.42334225 97.8930553 -125.33984375 92.32421875 C-120.50726275 85.61656223 -115.28357493 80.34812543 -109 75 C-107.1828248 73.33843197 -105.37042745 71.67162566 -103.5625 70 C-98.19823905 65.12883267 -92.67773072 60.4998332 -87 56 C-86.35675781 55.48953125 -85.71351563 54.9790625 -85.05078125 54.453125 C-61.83445123 36.0860469 -37.63459947 18.67303938 -12 3.8125 C-11.12819092 3.30130615 -10.25638184 2.7901123 -9.3581543 2.26342773 C-8.55933838 1.81169189 -7.76052246 1.35995605 -6.9375 0.89453125 C-6.24527344 0.50112549 -5.55304688 0.10771973 -4.83984375 -0.29760742 C-3 -1 -3 -1 0 0 Z " fill="#000000" transform="translate(1135,215)"/>
<path d="M0 0 C0.83748779 0.00410889 1.67497559 0.00821777 2.5378418 0.01245117 C3.45629883 0.01438477 4.37475586 0.01631836 5.32104492 0.01831055 C6.76447266 0.03667969 6.76447266 0.03667969 8.23706055 0.05541992 C9.18774414 0.05606445 10.13842773 0.05670898 11.11791992 0.05737305 C15.55455834 0.08527643 19.57522652 0.33391089 23.92456055 1.24291992 C26.06885783 1.33416661 28.21582868 1.37297583 30.36206055 1.36791992 C31.45389648 1.37049805 32.54573242 1.37307617 33.6706543 1.37573242 C36.85807149 1.31870593 36.85807149 1.31870593 39.69116211 0.75170898 C56.37458588 -1.87349904 76.38901614 -1.58216148 91.92456055 5.24291992 C92.80112305 5.62706055 93.67768555 6.01120117 94.58081055 6.40698242 C96.84224001 7.54544178 98.85165133 8.79109228 100.92456055 10.24291992 C102.18526367 11.12270508 102.18526367 11.12270508 103.47143555 12.02026367 C111.91769884 18.32997219 118.37990654 26.51964989 120.48706055 37.05541992 C121.64858128 45.51792813 121.48357222 54.06584812 118.92456055 62.24291992 C118.55717773 63.44174805 118.55717773 63.44174805 118.18237305 64.66479492 C113.3636174 78.39611633 101.69736052 88.30907646 89.92456055 96.24291992 C93.82734065 102.48262307 97.82562061 108.62178063 102.0769043 114.62963867 C104.02419904 117.38384625 105.94510307 120.15501469 107.86206055 122.93041992 C112.23264359 129.24598752 116.60709896 135.5588522 120.98706055 141.86791992 C121.64762451 142.82142334 122.30818848 143.77492676 122.98876953 144.75732422 C124.95825598 147.59237959 126.9377746 150.41996257 128.92456055 153.24291992 C129.98743286 154.75450684 129.98743286 154.75450684 131.07177734 156.29663086 C131.77085205 157.27664063 132.46992676 158.25665039 133.19018555 159.26635742 C133.81828125 160.14984863 134.44637695 161.03333984 135.09350586 161.94360352 C140.39603165 168.60216191 146.93438293 169.98902103 155.0690918 171.37182617 C158.33527829 172.36821412 159.2342349 173.34267697 160.92456055 176.24291992 C159.17456055 180.11791992 159.17456055 180.11791992 156.92456055 181.24291992 C154.44137463 181.37803774 151.98751748 181.45551377 149.50268555 181.48120117 C148.39627716 181.49330879 148.39627716 181.49330879 147.26751709 181.50566101 C145.70400338 181.51950043 144.14045948 181.53022323 142.5769043 181.53808594 C140.1974061 181.55525508 137.81931362 181.59913379 135.44018555 181.64331055 C133.91936241 181.65344175 132.39852747 181.66195652 130.87768555 181.66870117 C130.17121887 181.68620926 129.4647522 181.70371735 128.73687744 181.72175598 C122.69472923 181.6955215 119.3709365 179.40985013 114.9753418 175.51635742 C108.65422792 168.61284878 104.14770143 160.68126623 99.38647461 152.67651367 C95.55081204 146.29142942 91.52386277 140.02257475 87.51879883 133.74291992 C86.41360842 132.00981888 85.3105647 130.27534776 84.20922852 128.53979492 C82.4754969 125.81129926 80.73253771 123.08891327 78.98706055 120.36791992 C78.4554834 119.5295459 77.92390625 118.69117188 77.3762207 117.82739258 C71.543315 108.644395 71.543315 108.644395 62.29174805 103.62182617 C58.18912588 103.16016219 54.17331414 103.13498874 50.04956055 103.18041992 C48.87393555 103.1871875 48.87393555 103.1871875 47.67456055 103.1940918 C45.75786041 103.20577899 43.84120006 103.22371084 41.92456055 103.24291992 C42.04352834 109.68019937 42.16830517 116.1173486 42.296875 122.55444336 C42.33983843 124.7383375 42.38153526 126.92225699 42.421875 129.10620117 C40.95838356 152.1524538 40.95838356 152.1524538 48.92456055 172.24291992 C52.1054528 172.47951521 55.27865492 172.63917607 58.46557617 172.76049805 C63.7112793 173.02963867 63.7112793 173.02963867 65.92456055 175.24291992 C65.59484575 178.54006785 65.30187665 179.86560382 62.92456055 182.24291992 C59.32179422 183.62287858 55.96391852 183.12919418 52.17456055 182.80541992 C36.5744954 181.64768155 20.86428106 181.83285578 5.2878418 183.21948242 C1.8692027 183.24330569 -0.07858023 182.83044535 -3.07543945 181.24291992 C-3.73543945 180.58291992 -4.39543945 179.92291992 -5.07543945 179.24291992 C-4.5198839 174.68736437 -4.5198839 174.68736437 -3.07543945 173.24291992 C0.04765329 173.10729708 3.16370857 172.99496246 6.28979492 172.98901367 C9.83350992 172.85738007 11.5393138 172.63107504 14.07474136 170.07650661 C19.24060353 162.16334493 18.21665467 150.54404076 18.18334961 141.39111328 C18.18685425 140.17954056 18.19035889 138.96796783 18.19396973 137.71968079 C18.20119501 134.43870184 18.19959905 131.15788793 18.19321156 127.87691188 C18.18809109 124.41790256 18.19285948 120.95890301 18.19598389 117.49989319 C18.19960564 111.69603544 18.19487128 105.89222886 18.18530273 100.08837891 C18.17441649 93.40875492 18.17795223 86.72925306 18.18895555 80.04963201 C18.19807364 74.28021744 18.19929188 68.51083931 18.19407821 62.74141985 C18.19098389 59.31059907 18.19047847 55.87983543 18.19715118 52.44901848 C18.20226483 48.62104055 18.19443854 44.79329293 18.18334961 40.96533203 C18.18739807 39.85070587 18.19144653 38.73607971 18.19561768 37.587677 C18.24682525 24.42362328 18.24682525 24.42362328 13.92456055 12.24291992 C9.8951612 9.72454533 5.89726382 10.17684776 1.3269043 10.46557617 C-1.61523537 10.19289006 -2.89392537 9.17252707 -5.07543945 7.24291992 C-4.00585186 0.46886514 -4.00585186 0.46886514 0 0 Z M43.92456055 12.24291992 C41.43056465 15.98391377 41.68233086 17.90627755 41.69750977 22.37646484 C41.69721771 23.09866714 41.69692566 23.82086945 41.69662476 24.56495667 C41.6980177 26.95122304 41.71357701 29.33717687 41.72924805 31.72338867 C41.73297831 33.37819752 41.73582522 35.03300858 41.73782349 36.68782043 C41.74545892 41.04277649 41.76510662 45.3975991 41.78723145 49.75250244 C41.80769182 54.19655553 41.81682561 58.64063018 41.8269043 63.0847168 C41.84835261 71.80417907 41.88248745 80.5235329 41.92456055 89.24291992 C47.92132189 91.32231157 52.93242417 91.57561414 59.23706055 91.55541992 C60.23157227 91.5715332 61.22608398 91.58764648 62.25073242 91.60424805 C72.61367145 91.61105234 80.15996271 89.15854123 87.92456055 82.24291992 C96.97757313 72.93843477 97.29253116 61.36347013 97.1394043 49.18823242 C96.83274065 39.0130946 93.30092816 31.06814576 86.48706055 23.55541992 C85.21862305 22.41073242 85.21862305 22.41073242 83.92456055 21.24291992 C82.56331055 19.97448242 82.56331055 19.97448242 81.17456055 18.68041992 C71.20156416 10.61066712 55.91762269 7.77491638 43.92456055 12.24291992 Z " fill="#000000" transform="translate(183.075439453125,697.757080078125)"/>
<path d="M0 0 C0.37311697 9.64906066 0.65616319 19.29558932 0.82899475 28.95032597 C0.91201532 33.43540232 1.0242646 37.91549714 1.20703125 42.39770508 C2.45201943 73.74630219 2.45201943 73.74630219 -3.3515625 81.53466797 C-6.50964644 84.83412678 -9.94763068 87.33564386 -13.86816406 89.65463257 C-17.59752553 92.00817271 -20.76102821 95.02456283 -24 98 C-24.53197998 98.48319199 -25.06395996 98.96638397 -25.61206055 99.46421814 C-27.08048957 100.8031644 -28.54038906 102.15144641 -30 103.5 C-33.95769137 107.14514414 -37.95179174 110.73915812 -42.015625 114.265625 C-46.05374691 117.79500714 -50.01914681 121.40634226 -54 125 C-55.66640851 126.50028679 -57.33307353 128.00028872 -59 129.5 C-59.825 130.2425 -60.65 130.985 -61.5 131.75 C-109 174.5 -109 174.5 -111.4921875 176.7421875 C-113.18592894 178.26708244 -114.87861169 179.79315402 -116.5703125 181.3203125 C-120.31564256 184.69912708 -124.06518207 188.06895965 -127.875 191.375 C-133.349264 196.13963719 -138.66394884 201.08193952 -144 206 C-144.66 205.67 -145.32 205.34 -146 205 C-139.30793005 195.42604176 -132.6131231 185.85412527 -125.875 176.3125 C-125.39522705 175.63219727 -124.9154541 174.95189453 -124.42114258 174.25097656 C-121.8564737 170.61701489 -119.28059017 166.99154187 -116.69140625 163.375 C-116.14693848 162.61147217 -115.6024707 161.84794434 -115.04150391 161.0612793 C-114.00429277 159.60713138 -112.96381848 158.15530308 -111.91943359 156.70629883 C-111.44973145 156.04654053 -110.9800293 155.38678223 -110.49609375 154.70703125 C-110.08544678 154.1344458 -109.6747998 153.56186035 -109.25170898 152.97192383 C-105.76687549 147.48196867 -103.8464583 141.76734534 -102.01171875 135.5859375 C-101.74486771 134.69387604 -101.47801666 133.80181458 -101.20307922 132.88272095 C-100.64456464 131.00607005 -100.08921543 129.12847449 -99.53686523 127.25 C-98.68691878 124.37303262 -97.81549142 121.50312049 -96.94335938 118.6328125 C-96.40231313 116.80508148 -95.86255444 114.97696872 -95.32421875 113.1484375 C-95.06082199 112.29108002 -94.79742523 111.43372253 -94.52604675 110.55038452 C-94.17997124 109.34861069 -94.17997124 109.34861069 -93.8269043 108.12255859 C-93.61833298 107.42117767 -93.40976166 106.71979675 -93.19487 105.99716187 C-92.94198971 103.40547059 -93.64159116 102.18724228 -95 100 C-96.31262246 98.44316871 -97.67245325 96.92561001 -99.0625 95.4375 C-103.12788606 91.00785534 -106.94126657 86.43260953 -110.71484375 81.75390625 C-113.79358945 78.04362297 -117.05361127 74.51537258 -120.34765625 70.99609375 C-122 69 -122 69 -122 67 C-105.07226562 57.59570312 -105.07226562 57.59570312 -88.14453125 48.19140625 C-87.04616943 47.58119629 -85.94780762 46.97098633 -84.81616211 46.34228516 C-82.5865378 45.10362323 -80.35688234 43.86501738 -78.12719727 42.62646484 C-72.52418029 39.51399194 -66.92168763 36.40058307 -61.3203125 33.28515625 C-49.39022298 26.65104506 -37.45181738 20.03237031 -25.5 13.4375 C-24.89875305 13.10565704 -24.2975061 12.77381409 -23.67803955 12.43191528 C-19.78710801 10.28475802 -15.89380072 8.14194828 -12 6 C-10.9275 5.40719238 -9.855 4.81438477 -8.75 4.20361328 C-7.24953125 3.37772705 -7.24953125 3.37772705 -5.71875 2.53515625 C-4.83123047 2.04539307 -3.94371094 1.55562988 -3.02929688 1.05102539 C-1 0 -1 0 0 0 Z " fill="#000000" transform="translate(1054,464)"/>
<path d="M0 0 C0.8572467 0.10960052 1.71449341 0.21920105 2.59771729 0.3321228 C4.50313982 0.57812098 6.40698832 0.83653291 8.30932617 1.10534668 C11.6043246 1.56448581 14.90276365 1.97684077 18.20507812 2.37988281 C25.53140042 3.27714981 32.85164201 4.21859209 40.171875 5.1640625 C42.73043624 5.49244094 45.2890298 5.82056756 47.84765625 6.1484375 C54.03943732 6.94241707 60.23081554 7.73947668 66.421875 8.5390625 C65.32125377 10.28128861 64.21895566 12.02245545 63.1159668 13.76318359 C62.50230759 14.73291107 61.88864838 15.70263855 61.25639343 16.70175171 C58.71880204 20.62645223 56.0014733 24.39940599 53.234375 28.1640625 C52.09559429 29.72731132 50.95759158 31.29112714 49.8203125 32.85546875 C48.96904785 34.02553467 48.96904785 34.02553467 48.10058594 35.21923828 C45.49065573 38.82592194 42.92220106 42.46131896 40.359375 46.1015625 C39.86791992 46.79918701 39.37646484 47.49681152 38.87011719 48.21557617 C37.38654371 50.32282523 35.90401451 52.43080465 34.421875 54.5390625 C28.34697276 63.18026007 22.24822351 71.80049525 16.046875 80.3515625 C5.96194439 94.26527084 -3.82120195 108.39410527 -13.578125 122.5390625 C-16.58686598 121.20102792 -18.56198143 119.76321874 -20.78515625 117.34375 C-21.65998657 116.3993103 -21.65998657 116.3993103 -22.55249023 115.43579102 C-23.15907471 114.76862061 -23.76565918 114.1014502 -24.390625 113.4140625 C-25.01718994 112.73335693 -25.64375488 112.05265137 -26.28930664 111.35131836 C-29.39793131 107.96417647 -32.48274779 104.55682672 -35.515625 101.1015625 C-36.00699951 100.56426514 -36.49837402 100.02696777 -37.00463867 99.47338867 C-38.578125 97.5390625 -38.578125 97.5390625 -39.67456055 95.34228516 C-41.37884488 92.43419885 -42.58290081 91.15440764 -45.578125 89.5390625 C-52.55115028 89.00676328 -59.66521916 90.96892569 -66.453125 92.3515625 C-68.36776766 92.70381658 -70.2831333 93.05216477 -72.19921875 93.39648438 C-87.67698203 96.20802684 -87.67698203 96.20802684 -102.046875 102.40234375 C-103.50432129 103.22835083 -103.50432129 103.22835083 -104.99121094 104.07104492 C-106.00989258 104.65861572 -107.02857422 105.24618652 -108.078125 105.8515625 C-110.28110194 107.10442705 -112.48423168 108.35702294 -114.6875 109.609375 C-116.38036133 110.57665527 -116.38036133 110.57665527 -118.10742188 111.56347656 C-123.82800011 114.81973142 -129.57961974 118.01991619 -135.328125 121.2265625 C-137.3859502 122.37534688 -139.44327909 123.52502098 -141.5 124.67578125 C-142.36206055 125.15748779 -143.22412109 125.63919434 -144.11230469 126.13549805 C-145.86243708 127.13168727 -147.57959521 128.18682157 -149.27050781 129.28051758 C-150.03202148 129.6958374 -150.79353516 130.11115723 -151.578125 130.5390625 C-152.238125 130.2090625 -152.898125 129.8790625 -153.578125 129.5390625 C-138.54703411 115.42099295 -138.54703411 115.42099295 -132.53125 110.2421875 C-130.01200224 108.04540345 -127.54709504 105.79216631 -125.078125 103.5390625 C-121.95905489 100.69382022 -118.83057109 97.8670667 -115.640625 95.1015625 C-112.2312392 92.1402274 -108.9001819 89.09753764 -105.578125 86.0390625 C-101.61950314 82.39491921 -97.6263574 78.79992533 -93.5625 75.2734375 C-89.52439238 71.74406785 -85.55838311 68.13335619 -81.578125 64.5390625 C-72.08940459 55.97046043 -72.08940459 55.97046043 -67.640625 52.1015625 C-63.44370419 48.44727388 -59.3415974 44.69161277 -55.23046875 40.94140625 C-53.05351504 38.96964406 -50.85973826 37.02540913 -48.640625 35.1015625 C-45.2312392 32.1402274 -41.9001819 29.09753764 -38.578125 26.0390625 C-34.62491443 22.39990062 -30.63866916 18.80820077 -26.578125 15.2890625 C-23.37199005 12.48369442 -20.22394538 9.61411904 -17.0703125 6.75 C-15.83667969 5.65558594 -15.83667969 5.65558594 -14.578125 4.5390625 C-13.71364746 3.65895508 -12.84916992 2.77884766 -11.95849609 1.87207031 C-8.16736181 -1.2467836 -4.62960056 -0.72032864 0 0 Z " fill="#000000" transform="translate(881.578125,352.4609375)"/>
<path d="M0 0 C0.91523437 0.00515625 1.83046875 0.0103125 2.7734375 0.015625 C3.72734375 0.03625 4.68125 0.056875 5.6640625 0.078125 C7.08332031 0.08585938 7.08332031 0.08585938 8.53125 0.09375 C12.94415094 0.14333316 16.96314252 0.42965789 21.2890625 1.328125 C23.45421375 1.41923285 25.62200114 1.45818823 27.7890625 1.453125 C29.44421875 1.45699219 29.44421875 1.45699219 31.1328125 1.4609375 C34.15827582 1.42424788 34.15827582 1.42424788 36.53979492 0.83691406 C52.59376704 -2.1340901 73.48647228 -1.59628254 88.2890625 5.328125 C89.2275 5.72386719 90.1659375 6.11960937 91.1328125 6.52734375 C102.89006575 11.85706247 110.67554472 19.54022083 115.609375 31.5390625 C119.84797936 44.01775086 119.4194172 56.44458433 113.8125 68.50390625 C107.47457547 79.89191219 99.14831601 88.26125695 88.2890625 95.328125 C87.6290625 95.328125 86.9690625 95.328125 86.2890625 95.328125 C93.43923166 106.1570275 100.64076652 116.93319043 108.16894531 127.50366211 C110.94291575 131.40368593 113.65391255 135.33202312 116.2890625 139.328125 C117.6204789 141.32940163 118.95402752 143.32926048 120.2890625 145.328125 C120.73749512 146.00439941 121.18592773 146.68067383 121.64794922 147.37744141 C131.80555586 163.16399365 131.80555586 163.16399365 148.1640625 171.140625 C149.25460937 171.33269531 150.34515625 171.52476562 151.46875 171.72265625 C154.2890625 172.328125 154.2890625 172.328125 157.2890625 174.328125 C157.6640625 176.828125 157.6640625 176.828125 157.2890625 179.328125 C153.70401495 181.7181567 151.02532735 181.68397898 146.875 181.734375 C146.14592438 181.74577515 145.41684875 181.75717529 144.66567993 181.7689209 C143.12076602 181.78780632 141.57577181 181.80088316 140.03076172 181.80859375 C137.6922045 181.82789276 135.35725428 181.88987652 133.01953125 181.953125 C125.65961826 182.06277723 119.07873126 182.15143578 113.11743164 177.26269531 C109.64881618 173.59260466 106.93458187 169.61831961 104.2890625 165.328125 C103.38969971 163.90016602 103.38969971 163.90016602 102.47216797 162.44335938 C100.53387295 159.33522077 98.62756282 156.20919822 96.7265625 153.078125 C95.32420204 150.78435435 93.92095133 148.49116943 92.515625 146.19921875 C92.16391739 145.62535934 91.81220978 145.05149994 91.44984436 144.46025085 C87.88561349 138.65401948 84.2566302 132.88999289 80.6015625 127.140625 C80.03816162 126.25149414 79.47476074 125.36236328 78.89428711 124.44628906 C76.48535109 120.66793675 74.04690883 116.95232433 71.39453125 113.33984375 C69.2890625 110.328125 69.2890625 110.328125 69.2890625 108.328125 C68.6290625 108.328125 67.9690625 108.328125 67.2890625 108.328125 C67.2890625 107.668125 67.2890625 107.008125 67.2890625 106.328125 C61.46679832 103.75947904 55.99116562 103.18830743 49.6640625 103.203125 C48.55804687 103.20054687 47.45203125 103.19796875 46.3125 103.1953125 C43.75440339 103.30768367 41.733751 103.66438779 39.2890625 104.328125 C39.26410325 110.35636096 39.24608129 116.38456598 39.23413086 122.4128418 C39.22914205 124.45809453 39.22234861 126.50334378 39.21362305 128.54858398 C38.12840563 150.45874856 38.12840563 150.45874856 43.2890625 171.328125 C47.42838914 172.70790055 51.59793796 172.6437633 55.92773438 172.7578125 C57.91796875 172.8515625 57.91796875 172.8515625 61.2890625 173.328125 C63.2890625 176.328125 63.2890625 176.328125 63.0390625 178.390625 C62.2890625 180.328125 62.2890625 180.328125 60.2890625 182.328125 C56.5678372 183.78009842 52.95527767 183.20161856 49.0390625 182.890625 C33.25954539 181.7948252 17.40629977 181.90225818 1.65234375 183.3046875 C-1.74217266 183.32834267 -3.7198405 182.87084293 -6.7109375 181.328125 C-7.7109375 180.328125 -7.7109375 180.328125 -7.8984375 177.890625 C-7.7109375 175.328125 -7.7109375 175.328125 -5.7109375 173.328125 C-2.16912651 173.01743983 1.35226507 172.94880302 4.90625 172.8671875 C8.8481771 172.23902822 9.94646564 171.49880262 12.2890625 168.328125 C16.26983417 159.64276875 15.43595139 149.42278435 15.41845703 140.0546875 C15.42020935 138.88081482 15.42196167 137.70694214 15.42376709 136.49749756 C15.42813833 132.64935796 15.42526433 128.801265 15.421875 124.953125 C15.42209828 122.25992801 15.42351929 119.56673183 15.42477417 116.87353516 C15.42658662 111.24185692 15.4242139 105.61019186 15.41943359 99.97851562 C15.41399276 93.49434923 15.41575607 87.01021429 15.42126 80.52604866 C15.42581756 74.92994482 15.4264288 69.33385038 15.42382133 63.73774529 C15.42227304 60.40810181 15.42242516 57.07848477 15.42535782 53.74884033 C15.42791277 50.03305978 15.42400382 46.31733865 15.41845703 42.6015625 C15.42048126 41.51760193 15.42250549 40.43364136 15.42459106 39.3168335 C15.87953013 25.44512697 15.87953013 25.44512697 11.21875 12.78515625 C7.67085738 10.10628187 3.55532822 10.39776328 -0.75 10.36328125 C-3.7109375 10.328125 -3.7109375 10.328125 -6.7109375 9.328125 C-7.3984375 6.515625 -7.3984375 6.515625 -7.7109375 3.328125 C-5.51074207 0.21397437 -3.69454729 -0.04148766 0 0 Z M41.2890625 12.328125 C38.13676565 16.33398218 37.92215612 19.49360974 37.94848633 24.50512695 C37.94804825 25.20811417 37.94761017 25.91110138 37.94715881 26.63539124 C37.94923949 28.94601764 37.97253535 31.25590748 37.99609375 33.56640625 C38.00169229 35.17351383 38.00596117 36.78062655 38.00895691 38.38774109 C38.0203854 42.60794324 38.04983516 46.82783334 38.08306885 51.0479126 C38.11381293 55.35807067 38.1274715 59.6682794 38.14257812 63.97851562 C38.17470699 72.42852827 38.22587892 80.87828776 38.2890625 89.328125 C44.48336548 91.1541345 49.68789243 91.66248482 56.1015625 91.640625 C57.03548828 91.65673828 57.96941406 91.67285156 58.93164062 91.68945312 C68.6800925 91.69621819 76.77725901 89.69682796 84.2890625 83.328125 C84.2890625 82.668125 84.2890625 82.008125 84.2890625 81.328125 C84.9490625 81.328125 85.6090625 81.328125 86.2890625 81.328125 C87.2564695 79.64581031 88.21253696 77.95697303 89.1640625 76.265625 C89.69773437 75.32589844 90.23140625 74.38617187 90.78125 73.41796875 C95.87248315 62.9848977 95.78561831 50.38363515 92.6640625 39.328125 C88.79466639 28.50190522 82.05483534 20.30799138 72.1015625 14.453125 C66.61627394 12.25900957 61.7756392 10.99044559 55.8515625 10.578125 C54.59472656 10.48015625 53.33789062 10.3821875 52.04296875 10.28125 C47.99533809 10.33179273 45.03298314 10.78142631 41.2890625 12.328125 Z " fill="#000000" transform="translate(1067.7109375,697.671875)"/>
<path d="M0 0 C8.46278961 6.84901441 14.32485528 17.02567639 16.14453125 27.84375 C17.1793151 39.14827542 17.30081425 51.57044505 10.20703125 60.97265625 C-19.05802769 94.61207136 -74.62352618 110.0673419 -115.48672485 123.89279175 C-117.12899849 124.44880493 -118.77042839 125.00731679 -120.41098022 125.56838989 C-122.71232812 126.35326095 -125.01747184 127.12569523 -127.32421875 127.89453125 C-128.36783066 128.25309959 -128.36783066 128.25309959 -129.43252563 128.61891174 C-134.30462144 130.2200741 -134.30462144 130.2200741 -137.6484375 129.10546875 C-134.56022606 122.75777744 -131.46718597 116.41245463 -128.37109375 110.06860352 C-127.32283303 107.91938071 -126.27559762 105.76965745 -125.22949219 103.61938477 C-116.59277879 85.8693639 -107.8453414 68.19393153 -97.8359375 51.16796875 C-97.24828613 50.16636719 -96.66063477 49.16476562 -96.05517578 48.1328125 C-72.68389153 8.60738664 -72.68389153 8.60738664 -56.6484375 -5.89453125 C-55.4109375 -7.10109375 -55.4109375 -7.10109375 -54.1484375 -8.33203125 C-38.12226778 -18.34838732 -13.84098052 -9.90099639 0 0 Z M-45.44140625 23.796875 C-55.12342287 34.95614777 -61.7878882 49.17819792 -68.3984375 62.29296875 C-68.73359375 62.9576416 -69.06875 63.62231445 -69.4140625 64.30712891 C-71.10366653 67.55233413 -71.10366653 67.55233413 -71.6484375 71.10546875 C-65.05339991 69.7824723 -58.92466029 67.95201207 -52.6484375 65.54296875 C-51.7414209 65.19508301 -50.8344043 64.84719727 -49.89990234 64.48876953 C-43.86383389 62.11342081 -38.02042966 59.48849904 -32.2734375 56.48046875 C-31.603125 56.13298584 -30.9328125 55.78550293 -30.2421875 55.42749023 C-24.73458872 52.43468447 -19.15073437 48.92227538 -16.1484375 43.29296875 C-15.16391153 37.01661568 -15.80695154 31.03346675 -19.29296875 25.609375 C-22.78976178 21.72964786 -27.68308475 20.09543673 -32.7109375 19.16796875 C-38.28800126 19.07944393 -41.45393619 20.0352747 -45.44140625 23.796875 Z " fill="#000000" transform="translate(865.6484375,525.89453125)"/>
<path d="M0 0 C1.62109375 0.7578125 1.62109375 0.7578125 2.62109375 1.7578125 C2.53017775 4.45889754 2.38368609 7.12711561 2.18359375 9.8203125 C2.13138672 10.57892578 2.07917969 11.33753906 2.02539062 12.11914062 C1.8953354 13.99902972 1.75881337 15.87846935 1.62109375 17.7578125 C2.61109375 17.4278125 3.60109375 17.0978125 4.62109375 16.7578125 C4.62109375 16.0978125 4.62109375 15.4378125 4.62109375 14.7578125 C5.28109375 14.7578125 5.94109375 14.7578125 6.62109375 14.7578125 C6.95109375 13.7678125 7.28109375 12.7778125 7.62109375 11.7578125 C16.15724293 3.58943392 28.65517379 -0.4176976 40.30859375 -0.7421875 C56.77802568 0.01198203 69.40826802 5.70101064 80.62109375 17.7578125 C94.41351986 35.52432748 96.00353922 55.04305029 94.62109375 76.7578125 C94.01147685 81.40321051 92.59362331 85.51165074 90.62109375 89.7578125 C90.19699219 90.76199219 89.77289062 91.76617188 89.3359375 92.80078125 C82.14729109 108.59978408 69.6768737 120.61249962 53.47265625 126.8203125 C52.06113281 127.284375 52.06113281 127.284375 50.62109375 127.7578125 C49.58339844 128.12261719 48.54570313 128.48742187 47.4765625 128.86328125 C42.37448992 130.0470448 37.52839991 130.08724892 32.30859375 130.0703125 C31.32697266 130.08642578 30.34535156 130.10253906 29.33398438 130.11914062 C18.24758613 130.12647775 9.50740003 126.51301305 -0.37890625 121.7578125 C-0.25974439 127.27144335 -0.13544567 132.78492696 -0.0065918 138.29833984 C0.03645278 140.17005345 0.07814613 142.04179869 0.1184082 143.91357422 C0.17685755 146.6195627 0.24032776 149.32539638 0.3046875 152.03125 C0.32139999 152.85458832 0.33811249 153.67792664 0.35533142 154.5262146 C0.49943847 160.30686843 0.97471042 166.01223564 1.62109375 171.7578125 C6.99599767 171.83848896 12.10334623 171.71298402 17.43359375 170.9453125 C21.5245349 170.53331701 22.26837377 170.5271879 25.87109375 172.8828125 C27.62109375 175.7578125 27.62109375 175.7578125 27.74609375 178.3828125 C26.22735023 181.58904881 24.82844906 182.25704464 21.62109375 183.7578125 C18.90412035 183.99604399 16.44886719 184.08864311 13.74609375 184.0078125 C13.06417969 184.00265625 12.38226562 183.9975 11.6796875 183.9921875 C8.47677505 183.94338122 5.45517441 183.732585 2.28125 183.25 C-2.51773139 182.60467273 -7.23057477 182.612593 -12.06640625 182.6328125 C-13.00291016 182.62894531 -13.93941406 182.62507812 -14.90429688 182.62109375 C-15.80728516 182.62238281 -16.71027344 182.62367188 -17.640625 182.625 C-18.45490967 182.62612793 -19.26919434 182.62725586 -20.1081543 182.62841797 C-22.33193742 182.75513607 -24.23396139 183.18440866 -26.37890625 183.7578125 C-28.52077646 183.92467595 -30.66856417 184.02313447 -32.81640625 184.0703125 C-33.92886719 184.10769531 -35.04132813 184.14507813 -36.1875 184.18359375 C-40.05106572 183.66813639 -41.65875513 182.49796473 -44.37890625 179.7578125 C-44.94140625 177.1953125 -44.94140625 177.1953125 -44.37890625 174.7578125 C-42.828125 173.0859375 -42.828125 173.0859375 -40.37890625 171.7578125 C-37.68065102 171.7032733 -35.28704228 171.7864095 -32.62890625 172.0703125 C-31.93152344 172.13154297 -31.23414063 172.19277344 -30.515625 172.25585938 C-28.80200944 172.40844158 -27.09020675 172.58114839 -25.37890625 172.7578125 C-23.64367642 164.80328368 -23.08631626 157.22922894 -23.10424805 149.10131836 C-23.09913712 147.8868251 -23.09402618 146.67233185 -23.08876038 145.42103577 C-23.07732643 142.12355247 -23.0747768 138.82622688 -23.07732368 135.5287292 C-23.0784016 132.76294032 -23.07348953 129.99717404 -23.06871825 127.23139006 C-23.05766906 120.70233815 -23.05716055 114.17334381 -23.06323242 107.64428711 C-23.06927726 100.93395104 -23.05693781 94.22382437 -23.03566235 87.513524 C-23.01799351 81.72549456 -23.01205304 75.93753149 -23.0153001 70.14947611 C-23.0171037 66.70411977 -23.0145693 63.25891308 -23.00058556 59.81358147 C-22.98820384 55.97052874 -22.99502323 52.12795754 -23.0065918 48.28491211 C-22.99894806 47.15995331 -22.99130432 46.03499451 -22.98342896 44.87594604 C-23.02794931 38.16053222 -23.64992792 31.96946333 -26.37890625 25.7578125 C-30.11777252 22.34884619 -35.58114099 21.23163582 -40.37890625 19.7578125 C-40.56640625 16.8828125 -40.56640625 16.8828125 -40.37890625 13.7578125 C-37.72364794 11.98764029 -36.4597675 11.39039901 -33.4921875 10.71484375 C-32.34278687 10.43954834 -32.34278687 10.43954834 -31.17016602 10.15869141 C-30.35217529 9.96452637 -29.53418457 9.77036133 -28.69140625 9.5703125 C-21.21439991 7.7284735 -14.3660635 5.3072871 -7.45629883 1.90551758 C-2.87478022 -0.29267056 -2.87478022 -0.29267056 0 0 Z M16.62109375 19.7578125 C15.93917969 20.19351563 15.25726562 20.62921875 14.5546875 21.078125 C8.49127834 25.2891454 2.49923891 30.83543648 -0.37890625 37.7578125 C-0.72095527 40.50667535 -0.72095527 40.50667535 -0.73291016 43.54516602 C-0.75858063 44.7106044 -0.7842511 45.87604279 -0.81069946 47.07679749 C-0.82547333 48.3340715 -0.84024719 49.59134552 -0.85546875 50.88671875 C-0.87161224 52.18673325 -0.88775574 53.48674774 -0.90438843 54.82615662 C-0.93440045 57.58079496 -0.95409158 60.33533116 -0.96923828 63.09008789 C-0.99127027 66.59206263 -1.0599562 70.09146069 -1.13958168 73.59253025 C-1.20498788 76.96131347 -1.21351187 80.32985043 -1.23046875 83.69921875 C-1.26548492 84.94232315 -1.3005011 86.18542755 -1.33657837 87.46620178 C-1.29122671 96.67044293 1.33854033 102.05902126 7.62109375 108.7578125 C16.3223947 116.73784454 27.74914709 119.32737667 39.234375 119.140625 C47.29461802 118.22954793 55.0778179 114.69703662 60.62109375 108.7578125 C72.46418555 92.11899957 73.19295773 72.33336667 70.03149414 52.76953125 C67.6220511 39.33147746 61.88286722 29.02701282 51.58984375 20.046875 C45.86862622 16.30083971 40.96173112 15.22518374 34.24609375 15.3203125 C33.12182983 15.33167236 33.12182983 15.33167236 31.97485352 15.34326172 C26.11983196 15.51746911 21.57447082 16.49607954 16.62109375 19.7578125 Z " fill="#000000" transform="translate(1405.37890625,752.2421875)"/>
<path d="M0 0 C-1.34853668 44.50171059 -23.27887019 85.10176362 -48 121 C-60.99616279 113.04110961 -71.93932885 102.44630299 -82.625 91.6875 C-83.17004181 91.14096771 -83.71508362 90.59443542 -84.27664185 90.03134155 C-92.15550588 82.11377564 -99.53794178 74.13640914 -106 65 C-106.84544703 63.85773653 -107.69317698 62.71715988 -108.54296875 61.578125 C-113.04436759 55.48620367 -117.20517674 49.23182473 -121.125 42.75 C-121.51574707 42.10554932 -121.90649414 41.46109863 -122.30908203 40.79711914 C-125 36.25413007 -125 36.25413007 -125 34 C-99.83293529 20.14483364 -74.10766672 9.35779991 -46 3 C-45.16243164 2.80937988 -44.32486328 2.61875977 -43.46191406 2.42236328 C-29.09968194 -0.69430645 -14.62707692 -0.31986991 0 0 Z " fill="#000000" transform="translate(1272,170)"/>
<path d="M0 0 C2.33995605 4.46208716 1.81955813 7.08951238 0.64331055 11.90234375 C-1.62858524 22.41546211 -1.37684129 32.85566394 -1.29296875 43.5625 C-1.28735946 45.69197284 -1.28309568 47.82144961 -1.28010559 49.95092773 C-1.26876169 55.50092642 -1.23938694 61.05068198 -1.20599365 66.60058594 C-1.17506483 72.28577386 -1.16155195 77.97100184 -1.14648438 83.65625 C-1.11450524 94.77093897 -1.06343856 105.88544911 -1 117 C4.58171307 117 11.29228697 107.72939838 15.16015625 103.86328125 C17.36645647 101.65069597 19.5674941 99.43349318 21.75805664 97.20532227 C25.77207256 93.14168702 29.86547885 89.2889515 34.25146484 85.62744141 C36.13710058 83.87239424 37.61071164 82.17066299 39 80 C39 79.01 39 78.02 39 77 C38.43410156 76.76925781 37.86820313 76.53851562 37.28515625 76.30078125 C31.24983416 73.61723733 31.24983416 73.61723733 29.9375 70.375 C30 68 30 68 31 66 C37.32811916 64.77878402 43.22239866 65.15638724 49.62548828 65.66333008 C54.62108603 66.01800243 59.44818433 65.89555573 64.4375 65.5 C77.93030691 64.46515345 77.93030691 64.46515345 83 67 C83 68.98 83 70.96 83 73 C79.91046423 74.75721848 77.32382959 75.32438429 73.8125 75.75 C67.69668462 76.81115472 63.81435554 79.18761694 59 83 C58.12472656 83.68578125 57.24945312 84.3715625 56.34765625 85.078125 C50.02041659 90.1541153 43.99522328 95.53988755 38 101 C36.50504441 102.35973348 35.00544081 103.71438453 33.5 105.0625 C32.8709375 105.63097656 32.241875 106.19945312 31.59375 106.78515625 C30 108 30 108 28 108 C28 108.66 28 109.32 28 110 C27.34 110 26.68 110 26 110 C29.30979501 116.37711419 32.83404645 122.38890418 37.02734375 128.22265625 C39.35618231 131.50147648 41.58847527 134.83708251 43.8125 138.1875 C44.23700439 138.82598877 44.66150879 139.46447754 45.09887695 140.12231445 C46.81657531 142.70741338 48.53193758 145.29405777 50.24707031 147.88085938 C52.71606809 151.60298629 55.19288817 155.31969118 57.68066406 159.02929688 C58.59919499 160.4013142 59.51500855 161.77515299 60.42871094 163.15039062 C61.88209886 165.33481818 63.34617795 167.5117394 64.8125 169.6875 C65.25650146 170.359021 65.70050293 171.03054199 66.15795898 171.72241211 C69.35991584 176.44080033 72.41390494 180.13796831 78 182 C81.09306067 182.26730154 84.18568109 182.44451759 87.28515625 182.62109375 C90 183 90 183 92 185 C92.25 187.5 92.25 187.5 92 190 C87.0131084 194.9868916 74.939622 193.18356029 68.25 193.1875 C67.14011719 193.19974609 66.03023437 193.21199219 64.88671875 193.22460938 C63.81550781 193.22654297 62.74429688 193.22847656 61.640625 193.23046875 C60.67672852 193.23457764 59.71283203 193.23868652 58.71972656 193.24291992 C54.95654497 192.90680092 52.05296251 192.03323488 49.33203125 189.36328125 C44.40428112 182.71271873 39.82032042 175.85241348 35.27636719 168.93652344 C33.6951335 166.53745197 32.09554098 164.15102087 30.49487305 161.76489258 C28.31905992 158.51712197 26.15875097 155.25912865 24 152 C23.3723877 151.05302246 22.74477539 150.10604492 22.09814453 149.13037109 C20.01833523 145.98629015 17.94587681 142.83747021 15.875 139.6875 C14.86046753 138.15512695 14.86046753 138.15512695 13.82543945 136.59179688 C13.19984131 135.63724609 12.57424316 134.68269531 11.9296875 133.69921875 C11.08253174 132.41277466 11.08253174 132.41277466 10.21826172 131.1003418 C9 129 9 129 9 127 C7.51726301 128.12029017 6.03891114 129.24638618 4.5625 130.375 C3.73878906 131.00148438 2.91507813 131.62796875 2.06640625 132.2734375 C-0.08528092 133.83753904 -0.08528092 133.83753904 -1 136 C-1.09709562 137.80652808 -1.13076382 139.61664691 -1.1328125 141.42578125 C-1.13490723 142.52688232 -1.13700195 143.6279834 -1.13916016 144.76245117 C-1.1344873 145.93396729 -1.12981445 147.1054834 -1.125 148.3125 C-1.12161621 149.49626221 -1.11823242 150.68002441 -1.11474609 151.8996582 C-1.21856285 167.17642534 -1.21856285 167.17642534 2 182 C2.90363281 182.01417969 3.80726563 182.02835938 4.73828125 182.04296875 C6.50751953 182.11451172 6.50751953 182.11451172 8.3125 182.1875 C9.48425781 182.22230469 10.65601563 182.25710938 11.86328125 182.29296875 C15 183 15 183 16.91796875 185.55078125 C17.27503906 186.35902344 17.63210938 187.16726563 18 188 C15.55894591 191.78363384 15.55894591 191.78363384 13.3046875 192.65625 C10.24397692 193.11276277 7.45810319 192.83453852 4.375 192.5625 C-8.23230279 191.58168983 -20.83703024 191.66171066 -33.43115234 192.81982422 C-37.50176903 193.13969398 -40.35976698 192.89865812 -44 191 C-45 190 -45 190 -45.125 187 C-45 184 -45 184 -44 183 C-40.84759723 182.86457458 -37.70223146 182.75202487 -34.546875 182.74609375 C-31.30598604 182.62629435 -29.4504941 182.43762284 -27.0859375 180.140625 C-24.19260422 171.77285536 -24.83255534 162.13668085 -24.76293945 153.37524414 C-24.74982727 152.16396347 -24.73671509 150.9526828 -24.72320557 149.70469666 C-24.68883664 146.41541207 -24.65853896 143.12612623 -24.63081384 139.83677983 C-24.61318651 137.77406996 -24.59432923 135.71137492 -24.57506371 133.64867973 C-24.50775617 126.43126754 -24.44539877 119.2138311 -24.38745117 111.99633789 C-24.33356381 105.30191944 -24.26842128 98.60767356 -24.19811279 91.91340929 C-24.13796006 86.13560942 -24.08599225 80.35777189 -24.04018563 74.5798406 C-24.01278487 71.14223111 -23.98217771 67.70472815 -23.94317055 64.26722908 C-23.90174941 60.42954382 -23.87372951 56.59197403 -23.84887695 52.75415039 C-23.83390671 51.63638214 -23.81893646 50.51861389 -23.80351257 49.36697388 C-23.5963047 36.55698245 -23.5963047 36.55698245 -28.0625 24.9375 C-31.30292349 22.8001994 -34.2873216 21.69607829 -38.01171875 20.67578125 C-40 20 -40 20 -42 18 C-42.0625 15.5625 -42.0625 15.5625 -41 13 C-36.23683165 10.6123865 -31.51132114 9.31163833 -26.3125 8.1875 C-19.85742812 6.70836896 -14.41657819 4.510455 -8.6484375 1.171875 C-5.57910659 -0.18623602 -3.32090876 -0.21425218 0 0 Z " fill="#000000" transform="translate(666,688)"/>
<path d="M0 0 C0 0.66 0 1.32 0 2 C0.99 2.33 1.98 2.66 3 3 C11.71636564 13.2191873 12.58359959 25.66645526 12.5390625 38.4296875 C12.54899003 39.99383913 12.56093901 41.5579791 12.57479858 43.12210083 C12.60692459 47.20704189 12.61753285 51.29171508 12.62164307 55.37677002 C12.63045461 61.93431759 12.66598258 68.49164817 12.7138176 75.04901505 C12.72635599 77.32962569 12.72565004 79.60995653 12.72354126 81.89059448 C12.73012198 83.29018366 12.73712832 84.68977092 12.74462891 86.08935547 C12.74588776 87.30638153 12.74714661 88.52340759 12.7484436 89.77731323 C12.99748227 92.96774535 13.52100677 95.17385722 15 98 C19.05824926 99.84465876 22.73736603 98.4720713 26.81640625 97.27734375 C29.56439241 96.9283151 30.74622567 97.42679648 33 99 C33.33 99.99 33.66 100.98 34 102 C30.66979815 106.92714075 27.54655397 109.09140076 22.0625 111.5625 C18.23885826 113.29749304 14.9134226 114.93277488 11.75 117.6796875 C9 120 9 120 5.9375 120.5625 C2.02300324 119.81291551 0.74392396 118.94971826 -2 116 C-4.17088715 112.41623143 -6.12145244 108.74418414 -8 105 C-8.47308594 105.37511719 -8.94617187 105.75023437 -9.43359375 106.13671875 C-14.3818162 109.9660449 -19.35332184 113.28995703 -25 116 C-25.81339844 116.39574219 -26.62679688 116.79148437 -27.46484375 117.19921875 C-39.34543347 122.05713564 -54.56867702 121.90081621 -66.75 118.0625 C-78.21761343 113.15172774 -84.37379419 105.36919952 -89 94 C-91.82339051 85.52982847 -91.26340824 74.33062684 -87.4375 66.3125 C-79.28692738 52.55130065 -65.98483161 46.05938296 -51 42 C-38.05115495 38.86484458 -24.98376724 39.2920262 -12 42 C-10.9420847 25.0081486 -10.9420847 25.0081486 -17.63671875 9.875 C-19 8 -19 8 -19 6 C-20.0828125 5.566875 -20.0828125 5.566875 -21.1875 5.125 C-24 4 -24 4 -26.12109375 2.953125 C-30.07365041 1.6445445 -33.7374791 1.63179396 -37.875 1.625 C-38.65230469 1.60050781 -39.42960937 1.57601562 -40.23046875 1.55078125 C-45.98605747 1.52176147 -49.26217026 2.71766031 -54 6 C-57.99333367 10.09073205 -60.67711197 14.66123514 -63.47265625 19.6328125 C-66.00767823 23.5617724 -67.84613726 25.70628949 -72.4375 26.875 C-76.11443651 27.00401532 -77.8646408 26.86426763 -81 25 C-83.69745749 22.37544677 -84.86562238 20.78946854 -85.5 17.0625 C-84.26161267 9.4773776 -77.97350093 4.3095731 -72 0 C-49.52063857 -12.85266451 -22.08575184 -14.72383456 0 0 Z M-61.4375 62.5625 C-64.60897395 67.50999936 -65.38739029 71.86475245 -65.375 77.6875 C-65.37483887 78.39285889 -65.37467773 79.09821777 -65.37451172 79.82495117 C-65.21483552 87.17762004 -63.06633569 92.90049646 -59 99 C-58.34 99 -57.68 99 -57 99 C-57 99.66 -57 100.32 -57 101 C-55.75264433 101.6509259 -54.50198168 102.29551669 -53.25 102.9375 C-52.20585938 103.47697266 -52.20585938 103.47697266 -51.140625 104.02734375 C-42.45913898 107.97203357 -32.67634904 106.10364081 -24 103 C-20.75354624 101.27532144 -17.8350524 99.33777506 -15 97 C-13.96214355 96.22305786 -13.96214355 96.22305786 -12.90332031 95.43041992 C-10.18922442 91.96469075 -10.4991129 88.72785229 -10.609375 84.515625 C-10.61786469 83.29223419 -10.61786469 83.29223419 -10.62652588 82.04412842 C-10.64887273 79.44548228 -10.69906378 76.84822758 -10.75 74.25 C-10.77006729 72.48569703 -10.78831766 70.7213724 -10.8046875 68.95703125 C-10.8487317 64.63748672 -10.91774578 60.31897907 -11 56 C-12.08659912 55.52006592 -13.17319824 55.04013184 -14.29272461 54.5456543 C-14.90393661 54.27569138 -15.51514862 54.00572845 -16.1448822 53.72758484 C-18.89980089 52.64709439 -21.64013858 52.22395161 -24.5625 51.8125 C-25.63628906 51.65394531 -26.71007813 51.49539063 -27.81640625 51.33203125 C-40.63336893 49.99529281 -52.44478387 53.10861894 -61.4375 62.5625 Z " fill="#000000" transform="translate(1613,762)"/>
<path d="M0 0 C13.47980311 10.11908507 21.69253048 23.28327911 24.703125 39.875 C27.32313048 58.3421365 24.31563899 77.69060607 13 93 C4.99516249 102.84981864 -3.42315751 110.64378087 -15 116 C-15.88429688 116.41636719 -16.76859375 116.83273437 -17.6796875 117.26171875 C-32.57050371 123.01223721 -51.89323446 121.99165756 -66.69921875 116.50390625 C-71.39998832 114.3621355 -75.75889841 111.94544937 -80 109 C-81.485 108.01 -81.485 108.01 -83 107 C-83 106.34 -83 105.68 -83 105 C-83.56847656 104.77957031 -84.13695312 104.55914063 -84.72265625 104.33203125 C-94.11699105 98.83723165 -98.82707135 85.82841849 -101.55981445 75.9831543 C-106.59781496 55.7975805 -102.22718542 36.60752799 -92 19 C-82.29780061 3.81013127 -68.21426666 -5.11866423 -50.94921875 -9.0859375 C-33.40499817 -12.63374599 -15.19200981 -9.49040807 0 0 Z M-67 12 C-75.93823215 23.26608187 -78.68873245 35.19480874 -78.52148438 49.2902832 C-78.50005195 51.43230776 -78.52138467 53.57096763 -78.546875 55.71289062 C-78.57936337 72.13038503 -73.70901707 86.79890018 -62.32421875 98.8046875 C-59.12161525 101.82966761 -55.96818935 104.09712557 -52 106 C-51.34902344 106.31710937 -50.69804687 106.63421875 -50.02734375 106.9609375 C-41.10037448 110.59846891 -30.5897269 110.37132002 -21.625 107.0625 C-11.08462794 101.9906543 -5.24995777 93.67366444 -1 83 C0.82966097 77.5941835 1.44232855 72.58907511 1.6875 66.9375 C1.74393677 65.6851355 1.74393677 65.6851355 1.80151367 64.4074707 C2.37534105 49.32173693 1.00307418 34.19909995 -7 21 C-7.34546875 20.40960937 -7.6909375 19.81921875 -8.046875 19.2109375 C-13.48135089 10.76144416 -22.71841692 4.47611214 -32.4375 2.3125 C-33.52933594 2.06113281 -34.62117188 1.80976562 -35.74609375 1.55078125 C-47.26334408 -0.39871731 -58.95194793 3.52670838 -67 12 Z " fill="#000000" transform="translate(455,762)"/>
<path d="M0 0 C9.61305984 8.38200886 18.01859125 18.72682072 19.26757812 31.91552734 C19.36511139 34.23890896 19.38464056 36.549696 19.375 38.875 C19.39111328 39.66003906 19.40722656 40.44507813 19.42382812 41.25390625 C19.42771053 45.85844352 19.20612197 49.12010971 16.0625 52.75 C12.11289847 54.7271464 8.59388304 55.097137 4.21191406 55.32836914 C3.20837891 55.3849192 3.20837891 55.3849192 2.18457031 55.44261169 C-0.0172256 55.56477248 -2.2194529 55.67491582 -4.421875 55.78515625 C-5.9626302 55.86876251 -7.50334035 55.95320268 -9.04400635 56.03843689 C-13.09748993 56.2607813 -17.15142659 56.47329212 -21.20556641 56.68328857 C-27.67942759 57.02032291 -34.15247905 57.37257419 -40.62555695 57.72427177 C-42.87472095 57.8451226 -45.12406335 57.96198436 -47.37347412 58.07814026 C-54.25884347 58.44028466 -61.09526085 58.88254615 -67.9375 59.75 C-65.78745303 71.52851819 -62.81969261 81.2895491 -56.9375 91.75 C-56.62039063 92.49507812 -56.30328125 93.24015625 -55.9765625 94.0078125 C-54.63284508 96.26081239 -53.32110794 96.72908785 -50.9375 97.75 C-49.74349474 98.53182082 -48.55618288 99.32393861 -47.375 100.125 C-36.52186654 106.83602014 -25.46912128 108.38255701 -12.97265625 106.2421875 C-7.93990347 104.89288244 -3.80089737 102.70428629 0.46875 99.73828125 C2.0625 98.75 2.0625 98.75 4.0625 98.75 C4.0625 98.09 4.0625 97.43 4.0625 96.75 C6.1431833 94.66316083 8.42822471 93.06450863 11.0625 91.75 C14.5 91.9375 14.5 91.9375 17.0625 92.75 C18.4375 95.1875 18.4375 95.1875 19.0625 98.75 C15.66869095 107.34349814 8.01503438 112.37152171 -0.00390625 116.22265625 C-2.96105809 117.49212194 -5.9026734 118.6795922 -8.9375 119.75 C-9.93910156 120.11867188 -10.94070313 120.48734375 -11.97265625 120.8671875 C-17.5679895 122.41128206 -23.43165924 122.07822634 -29.1875 122.0625 C-30.93353516 122.08666992 -30.93353516 122.08666992 -32.71484375 122.11132812 C-47.68960463 122.11971265 -63.08286156 117.31371053 -74.1328125 106.76171875 C-84.3770079 95.34232344 -88.65303768 84.38359032 -91.9375 69.75 C-92.1334375 68.9146875 -92.329375 68.079375 -92.53125 67.21875 C-95.64206084 48.31459182 -89.75130174 29.62451295 -79.09765625 14.0625 C-72.05186385 5.48242299 -61.44024884 -1.67074996 -50.9375 -5.25 C-50.09574219 -5.54648437 -49.25398438 -5.84296875 -48.38671875 -6.1484375 C-32.50432779 -10.93731887 -13.69759519 -10.0106786 0 0 Z M-56.9375 13.75 C-57.824375 14.636875 -58.71125 15.52375 -59.625 16.4375 C-65.27451125 23.61390618 -68.33839952 33.72069989 -68.9375 42.75 C-68.62912531 44.42146461 -68.29881216 46.08917418 -67.9375 47.75 C-52.71107528 47.44220651 -37.59330666 46.80648536 -22.4375 45.3125 C-21.16310059 45.19028076 -19.88870117 45.06806152 -18.57568359 44.94213867 C-17.38539551 44.81814697 -16.19510742 44.69415527 -14.96875 44.56640625 C-13.92267578 44.45756104 -12.87660156 44.34871582 -11.79882812 44.23657227 C-8.94241076 43.75083508 -6.57563151 42.92921081 -3.9375 41.75 C-2.17507884 30.34189546 -4.30065807 21.88360297 -10.5625 12.25 C-11.01625 11.755 -11.47 11.26 -11.9375 10.75 C-12.5975 10.75 -13.2575 10.75 -13.9375 10.75 C-13.9375 10.09 -13.9375 9.43 -13.9375 8.75 C-15.51824564 7.93247697 -17.10221223 7.12118003 -18.6875 6.3125 C-19.56921875 5.86003906 -20.4509375 5.40757812 -21.359375 4.94140625 C-34.51225751 -1.13681976 -47.36267416 4.02489663 -56.9375 13.75 Z " fill="#000000" transform="translate(1326.9375,760.25)"/>
<path d="M0 0 C11.36438044 9.62676867 15.96777929 21.09286784 17.3515625 35.71484375 C17.62035274 46.38092926 17.62035274 46.38092926 14 51 C10.06355059 52.99673018 6.52533782 53.347456 2.14941406 53.57836914 C1.14587891 53.6349192 1.14587891 53.6349192 0.12207031 53.69261169 C-2.0797256 53.81477248 -4.2819529 53.92491582 -6.484375 54.03515625 C-8.0251302 54.11876251 -9.56584035 54.20320268 -11.10650635 54.28843689 C-15.15998993 54.5107813 -19.21392659 54.72329212 -23.26806641 54.93328857 C-29.74192759 55.27032291 -36.21497905 55.62257419 -42.68805695 55.97427177 C-44.93722095 56.0951226 -47.18656335 56.21198436 -49.43597412 56.32814026 C-56.32134347 56.69028466 -63.15776085 57.13254615 -70 58 C-67.71736749 72.62369444 -64.72012288 87.340364 -52.45703125 97.00390625 C-41.48581494 104.4160538 -31.00761449 106.13720795 -18 105 C-10.03901898 103.38776471 -4.13124518 100.21355339 2 95 C8.00420576 89.98155937 8.00420576 89.98155937 12.375 90.0625 C15 91 15 91 16 93 C16.46720242 97.11138133 16.09635515 99.99158312 13.57421875 103.36328125 C6.73899193 110.46988184 -1.7815916 114.82038855 -11 118 C-12.0003125 118.36738281 -13.000625 118.73476563 -14.03125 119.11328125 C-19.62787951 120.66161068 -25.4919419 120.3282324 -31.25 120.3125 C-32.99603516 120.33666992 -32.99603516 120.33666992 -34.77734375 120.36132812 C-50.92130053 120.37036729 -66.03176541 114.84839135 -77.75 103.515625 C-91.44800636 88.20049289 -96.2781988 69.26029189 -95.15966797 49.07568359 C-93.8680582 32.28475665 -87.0404492 17.33761775 -74.65625 5.8203125 C-53.36361059 -12.03585662 -23.28551941 -17.04201589 0 0 Z M-57 9 C-57 9.66 -57 10.32 -57 11 C-57.66 11 -58.32 11 -59 11 C-67.25661954 20.7664014 -71.10027237 33.34852906 -71 46 C-55.60584832 45.70342294 -40.31998928 45.13758057 -25 43.5625 C-23.78546143 43.44028076 -22.57092285 43.31806152 -21.31958008 43.19213867 C-15.91768893 42.60290411 -11.13441038 41.85065404 -6 40 C-4.43302868 31.46661401 -5.00995176 23.3838935 -9.29296875 15.671875 C-10.74764687 13.62830573 -12.27220977 11.81722878 -14 10 C-14.53753906 9.43410156 -15.07507813 8.86820313 -15.62890625 8.28515625 C-21.35906403 2.84748913 -27.62528056 0.904078 -35.4375 0.5625 C-43.48326762 0.79914022 -50.72777006 4.04823952 -57 9 Z " fill="#000000" transform="translate(865,762)"/>
<path d="M0 0 C4.09731573 4.09731573 6.73289813 7.83913986 7.0625 13.75 C6.5625 17.5625 6.5625 17.5625 4.875 19.9375 C1.36801889 22.4018651 -1.03195071 23.5924053 -5.375 23.5 C-10.12700727 22.0453039 -13.19470637 19.68462875 -15.6796875 15.44140625 C-16.27136719 14.29478516 -16.27136719 14.29478516 -16.875 13.125 C-20.26770724 6.6724144 -24.36633724 3.01365683 -31.3125 0.6875 C-40.44788628 -1.63084576 -49.37554752 -0.99068707 -57.63671875 3.8515625 C-67.50432301 10.88105582 -73.24919258 20.3044616 -76.04052734 32.10571289 C-79.06081328 50.79767927 -77.64566037 70.08704779 -67.5 86.25 C-60.85591332 95.44471921 -52.32986475 101.10095097 -41.0625 103.1875 C-30.93118834 104.23556672 -22.1347645 103.14042759 -13.4375 97.5625 C-10.58089306 95.23295715 -7.79437492 92.85231541 -5.05078125 90.390625 C-2.15348664 88.363818 -0.8901536 87.9743137 2.5625 88.5625 C4.5625 90.5625 4.5625 90.5625 5.0625 93.75 C4.37768338 98.97172676 2.46971534 101.15639592 -1.4375 104.5625 C-7.71574178 109.31954314 -13.87577125 113.29398137 -21.4375 115.5625 C-22.58347656 115.90796875 -23.72945312 116.2534375 -24.91015625 116.609375 C-38.02395328 119.83417828 -55.15688442 119.3823686 -67.4375 113.5625 C-68.44425781 113.088125 -69.45101562 112.61375 -70.48828125 112.125 C-84.55421872 104.68989201 -94.44858041 92.76714039 -99.55859375 77.7578125 C-100.64013377 73.82581367 -101.45738198 69.88563634 -102.1875 65.875 C-102.31535889 65.17431396 -102.44321777 64.47362793 -102.57495117 63.75170898 C-105.55952915 45.89254883 -100.39832188 28.09004014 -90.4296875 13.22265625 C-81.76624773 1.65441608 -69.63842604 -7.06478007 -55.4375 -10.4375 C-54.2 -10.74107422 -54.2 -10.74107422 -52.9375 -11.05078125 C-34.1557207 -15.06374863 -15.42515228 -11.63584688 0 0 Z " fill="#000000" transform="translate(601.4375,764.4375)"/>
<path d="M0 0 C2.375 0.9375 2.375 0.9375 4.375 3.9375 C4.54622248 6.47877298 4.60757451 8.91026745 4.5703125 11.44921875 C4.56829834 12.09491821 4.56628418 12.74061768 4.56420898 13.40588379 C4.55376398 15.81232837 4.5258413 18.2186715 4.5 20.625 C4.45875 26.008125 4.4175 31.39125 4.375 36.9375 C17.245 36.9375 30.115 36.9375 43.375 36.9375 C46.91847826 44.02445652 46.91847826 44.02445652 46.375 47.9375 C44.375 49.9375 44.375 49.9375 40.47607422 50.16455078 C38.79391207 50.16423341 37.11172981 50.15289396 35.4296875 50.1328125 C34.5446756 50.1299826 33.6596637 50.12715271 32.74783325 50.12423706 C29.91508588 50.1130224 27.08265216 50.0879157 24.25 50.0625 C22.33203581 50.05247185 20.41406667 50.04334572 18.49609375 50.03515625 C13.78894124 50.01307889 9.08202384 49.97854045 4.375 49.9375 C4.41315123 60.58685683 4.47264977 71.23586468 4.55890274 81.88494682 C4.5982998 86.83053733 4.63052629 91.77595186 4.64599609 96.72167969 C4.661214 101.50056025 4.69575012 106.27895675 4.74330902 111.057621 C4.75807005 112.87468365 4.76603797 114.69181543 4.76688385 116.50893784 C4.49639578 130.29123348 4.49639578 130.29123348 9.375 142.9375 C11.81709319 145.05862985 11.81709319 145.05862985 14.375 145.9375 C15.035 146.2675 15.695 146.5975 16.375 146.9375 C24.94481962 148.23036072 31.22349865 144.70516757 38.1875 140.0625 C40.375 138.9375 40.375 138.9375 43.0625 139 C45.375 139.9375 45.375 139.9375 46.75 141.6875 C47.59332526 144.72347095 47.57145544 145.98155126 46.375 148.9375 C40.11601197 155.95796729 30.53826717 161.21766968 21.17871094 162.15820312 C9.79910489 162.7216918 0.50789758 162.70399448 -8.375 154.875 C-19.5662101 142.69709388 -18.9176393 126.02377987 -18.8203125 110.58203125 C-18.816575 108.826555 -18.81373152 107.07107663 -18.81173706 105.31559753 C-18.80415856 100.7306018 -18.78456084 96.14573598 -18.7623291 91.56079102 C-18.74174498 86.86801917 -18.73270866 82.17522601 -18.72265625 77.48242188 C-18.7013086 68.30072467 -18.66724387 59.1191232 -18.625 49.9375 C-19.38280762 49.95200195 -20.14061523 49.96650391 -20.92138672 49.98144531 C-22.41049561 49.99836426 -22.41049561 49.99836426 -23.9296875 50.015625 C-24.91437012 50.03012695 -25.89905273 50.04462891 -26.91357422 50.05957031 C-30.27709605 49.90814217 -32.1545526 49.24325091 -34.625 46.9375 C-35.625 45 -35.625 45 -35.625 42.9375 C-33.76546297 38.68712965 -29.90751034 37.48049508 -25.87890625 35.76953125 C-23.80675912 35.00459652 -21.77774114 34.4229701 -19.625 33.9375 C-19.625 33.2775 -19.625 32.6175 -19.625 31.9375 C-19.19058594 31.52371094 -18.75617187 31.10992188 -18.30859375 30.68359375 C-12.4643587 24.62240334 -9.93935348 14.42644529 -7.6796875 6.49609375 C-6.10575785 2.67785701 -4.33524132 -0.10322003 0 0 Z " fill="#000000" transform="translate(930.625,720.0625)"/>
<path d="M0 0 C0.495 0.495 0.495 0.495 1 1 C0.32338221 8.03682505 -0.90378998 15.01831288 -2 22 C-1.34 22 -0.68 22 0 22 C0.2784375 21.40832031 0.556875 20.81664062 0.84375 20.20703125 C5.27666329 11.74555824 13.66386469 5.32975328 22.5625 2.125 C29.66663622 0.10777613 35.99285993 -0.90862418 43 2 C46.31715465 4.23946155 48.76452569 6.64678854 51 10 C51.71249183 15.27741041 51.64556003 19.70887994 49.25 24.5 C44.59433962 29.67295597 44.59433962 29.67295597 40.5625 30.5 C36.79004268 29.76391077 35.41618639 27.92485721 33 25 C31.96958573 23.01549844 30.96314063 21.01800895 30 19 C26.7387852 17.3693926 23.52388167 17.47079516 20 18 C10.78048413 21.6486501 4.3169891 30.37097012 0.07981873 38.99433899 C-1.93880097 44.61313996 -1.62857861 50.28240887 -1.5234375 56.1875 C-1.51662672 57.53929783 -1.51191743 58.89110769 -1.50918579 60.24291992 C-1.49587703 63.77727691 -1.45176743 67.31060572 -1.40161133 70.84460449 C-1.36621534 73.71151716 -1.35312475 76.57832696 -1.34119225 79.44541931 C-2.81203418 99.05579941 -2.81203418 99.05579941 2 117 C3.96505025 117.38227008 3.96505025 117.38227008 6.2109375 117.22265625 C7.04367187 117.20396484 7.87640625 117.18527344 8.734375 117.16601562 C9.60578125 117.13185547 10.4771875 117.09769531 11.375 117.0625 C13.09084187 117.00231749 14.80703147 116.95121226 16.5234375 116.91015625 C17.28575684 116.88058838 18.04807617 116.85102051 18.83349609 116.82055664 C21.33623728 117.02784927 22.878549 117.6743115 25 119 C25.9375 120.875 25.9375 120.875 26 123 C24.61564642 125.32031591 23.74791979 126.73909775 21.15234375 127.64453125 C14.74713903 128.13028752 8.48694171 127.82230093 2.08959961 127.41186523 C-7.57374965 126.80088962 -17.22425068 126.66463775 -26.890625 127.296875 C-27.70208984 127.3498877 -28.51355469 127.40290039 -29.34960938 127.45751953 C-30.90908374 127.56632745 -32.46782397 127.68646175 -34.02539062 127.81982422 C-38.2232328 128.12635455 -41.25118673 127.98887422 -45 126 C-46 125 -46 125 -46.1875 122.5625 C-46 120 -46 120 -44 118 C-40.79141054 117.74242974 -37.62693207 117.63342566 -34.41015625 117.609375 C-32.1619119 117.57114515 -32.1619119 117.57114515 -29 117 C-26.37566219 113.01177884 -26.3084331 108.64394022 -25.890625 104.0078125 C-25.80653381 103.09250763 -25.72244263 102.17720276 -25.63580322 101.23416138 C-24.70603932 90.0096829 -24.69977384 78.77745335 -24.73925781 67.52148438 C-24.75008871 63.84488836 -24.73923701 60.16876986 -24.7265625 56.4921875 C-24.72788258 54.11718644 -24.73044182 51.74218567 -24.734375 49.3671875 C-24.73032654 48.28678192 -24.72627808 47.20637634 -24.72210693 46.0932312 C-24.38856674 34.57235554 -24.38856674 34.57235554 -28.39300537 24.25704956 C-31.52253333 21.80901914 -35.60831172 21.2056115 -39.3828125 20.16015625 C-42 19 -42 19 -43.1171875 17.12109375 C-43 15 -43 15 -41.61328125 12.89453125 C-38.0152314 10.28607956 -34.48256407 9.62409448 -30.1875 8.6875 C-22.19419489 6.80157718 -15.34662942 4.09721604 -8.1015625 0.2578125 C-4.75793312 -1.09816818 -3.35665544 -1.18398392 0 0 Z " fill="#000000" transform="translate(1777,753)"/>
<path d="M0 0 C0.495 0.495 0.495 0.495 1 1 C0.9140625 2.78515625 0.9140625 2.78515625 0.625 5.0625 C0.48964844 6.16271484 0.48964844 6.16271484 0.3515625 7.28515625 C0.07819734 9.39614277 -0.21365596 11.50473849 -0.51289368 13.61221313 C-1.06495271 18.05873173 -1.14783885 22.44317562 -1.14526367 26.91943359 C-1.14862228 27.77260666 -1.1519809 28.62577972 -1.15544128 29.50480652 C-1.16487774 32.30269865 -1.1668906 35.10053048 -1.16796875 37.8984375 C-1.17118606 39.85844954 -1.17455048 41.81846135 -1.17805481 43.7784729 C-1.18402756 47.87868812 -1.18589658 51.97888231 -1.18530273 56.07910156 C-1.18520114 61.3130258 -1.19885915 66.54681431 -1.21607494 71.78070641 C-1.22723416 75.82665619 -1.22922075 79.87257354 -1.22869301 83.91853714 C-1.22986699 85.84729099 -1.2342558 87.77604584 -1.24202538 89.70478439 C-1.33508657 103.47270469 -1.33508657 103.47270469 1 117 C6.61 117.33 12.22 117.66 18 118 C18.66 119.65 19.32 121.3 20 123 C18.79328884 125.41342233 17.9006166 126.65130521 15.35546875 127.63671875 C12.016093 128.15174685 8.78559415 127.82847726 5.4375 127.5625 C-7.87848854 126.65380494 -21.18373381 126.59040426 -34.48242188 127.81982422 C-38.53755346 128.1410723 -41.39059219 127.92939254 -45 126 C-45.66 125.34 -46.32 124.68 -47 124 C-46.63318342 121.06546739 -46.13562754 120.13562754 -44 118 C-40.39547828 117.61127707 -36.80930789 117.49218475 -33.1875 117.34375 C-29.90914165 117.32728393 -29.90914165 117.32728393 -28 115 C-25.2972728 106.3568912 -25.67206126 97.4510515 -25.6640625 88.48828125 C-25.65762591 86.78915803 -25.65089692 85.09003589 -25.64389038 83.39091492 C-25.63196812 79.84481229 -25.62820477 76.29880677 -25.62939453 72.75268555 C-25.62959847 68.21658033 -25.60219744 63.68109637 -25.56785011 59.14513874 C-25.54559198 55.64234059 -25.5415565 52.13969291 -25.54261398 48.63683128 C-25.5402602 46.96432524 -25.53144923 45.29181492 -25.51594925 43.61937904 C-25.49629225 41.2813724 -25.50212294 38.94471915 -25.51416016 36.60668945 C-25.50292114 35.92239365 -25.49168213 35.23809784 -25.48010254 34.5330658 C-25.54435469 29.60724751 -26.88994609 26.77532826 -30 23 C-32.69405442 21.73036734 -32.69405442 21.73036734 -35.625 21.25 C-40.84067797 20.15932203 -40.84067797 20.15932203 -43 18 C-42.67028521 14.70285207 -42.3773161 13.3773161 -40 11 C-38.17163086 10.37744141 -38.17163086 10.37744141 -35.96484375 9.8515625 C-34.75683105 9.55354736 -34.75683105 9.55354736 -33.52441406 9.24951172 C-32.67073242 9.04342285 -31.81705078 8.83733398 -30.9375 8.625 C-24.29653568 6.95424715 -18.11008013 5.14883516 -12 2 C-4.67204987 -1.64895878 -4.67204987 -1.64895878 0 0 Z " fill="#000000" transform="translate(1702,753)"/>
<path d="M0 0 C4.081308 2.23185668 6.52491284 4.57473852 8 9 C8.41110876 13.22177069 8.47543683 16.87396541 6.8125 20.8125 C3.95627898 24.2596633 1.26624316 26.57791895 -3 28 C-8.24894167 28.39614654 -11.55342094 27.86557317 -16 25 C-19.46455022 21.53544978 -20.80761256 18.90587962 -21 14 C-20.64493655 9.33745623 -19.40562668 5.89264808 -16.125 2.5 C-11.27006131 -1.19706628 -5.81045539 -1.20297656 0 0 Z " fill="#000000" transform="translate(1694,700)"/>
</svg>
